
        <svg xmlns="http://www.w3.org/2000/svg" xmlns:xlink="http://www.w3.org/1999/xlink" version="1.1" width="3168.5393258426966" height="1432.5842696629213" viewBox="0 0 3168.5393258426966 1432.5842696629213">
			
			<g transform="scale(8.426966292134832) translate(10, 10)">
				<defs id="SvgjsDefs3827"/><g id="SvgjsG3828" featureKey="symbolFeature-0" transform="matrix(1.110064046000176,0,0,1.110064046000176,-5.523675330657601,20.45579968066349)" fill="#fff"><path xmlns="http://www.w3.org/2000/svg" d="M49.1,49.448c0.766,0.577,1.447,1.258,2.027,2.021c7.117-6.466,18.222-10.627,30.703-10.627  c4.319,0,8.471,0.501,12.353,1.42c0.026-0.11,0.043-0.223,0.067-0.333c-4.959-1.939-10.633-3.046-16.663-3.046  C65.856,38.883,55.465,43.058,49.1,49.448z"/><path xmlns="http://www.w3.org/2000/svg" d="M87.044,15.932c-9.656-7.638-23.479-5.557-31.422,4.611c-0.707,0.906-1.398,1.824-2.024,2.641  c-1.912-2.131-3.482-4.26-5.421-5.975c-6.587-5.83-14.199-7.423-22.476-4.434c-7.985,2.884-12.58,8.875-13.526,17.164  c-0.113,0.021-0.226,0.045-0.34,0.07c-0.007,0.001-0.014,0.003-0.02,0.005c-0.196,0.044-0.394,0.095-0.593,0.153  c-0.076,0.021-0.153,0.045-0.229,0.069c-0.117,0.037-0.233,0.076-0.35,0.118c-0.106,0.038-0.211,0.077-0.316,0.119  c-0.068,0.027-0.135,0.054-0.203,0.083c-0.149,0.064-0.298,0.133-0.447,0.207c-0.055,0.028-0.11,0.056-0.165,0.085  c-0.159,0.083-0.317,0.17-0.473,0.267c-0.034,0.021-0.067,0.043-0.1,0.064c-0.15,0.095-0.299,0.196-0.445,0.303  c-0.028,0.021-0.058,0.04-0.085,0.061c-0.162,0.122-0.32,0.253-0.477,0.392c-0.034,0.029-0.067,0.06-0.101,0.089  c-0.156,0.143-0.309,0.294-0.459,0.454c-0.026,0.029-0.051,0.058-0.077,0.086c-0.156,0.173-0.31,0.354-0.458,0.548  c-1.456,1.918-2.047,4.332-1.801,7.507h-0.06c0.938,11.559,8.589,19.042,8.589,19.042c0.003,0.002,0.004,0.004,0.007,0.006  c0.254,0.293,0.517,0.582,0.787,0.873c0.028,0.029,0.057,0.061,0.085,0.092c0.269,0.289,0.545,0.576,0.829,0.863  c0.015,0.016,0.03,0.031,0.046,0.047c0.584,0.59,1.203,1.178,1.854,1.76c0.027,0.023,0.054,0.047,0.081,0.072  c0.322,0.285,0.651,0.57,0.99,0.854c0.02,0.016,0.039,0.031,0.059,0.049c0.693,0.578,1.422,1.148,2.189,1.709  c0.024,0.02,0.049,0.037,0.073,0.055c0.379,0.277,0.768,0.551,1.165,0.824c0.024,0.016,0.048,0.033,0.073,0.049  c0.811,0.553,1.66,1.094,2.55,1.623c0.022,0.014,0.045,0.025,0.067,0.039c0.439,0.262,0.889,0.518,1.348,0.77  c0.031,0.018,0.063,0.035,0.094,0.053c0.937,0.514,1.916,1.014,2.938,1.494c0.019,0.01,0.038,0.02,0.057,0.027  c0.504,0.238,1.018,0.471,1.543,0.697c0.04,0.018,0.079,0.035,0.119,0.051c1.075,0.465,2.193,0.91,3.358,1.332  c0.014,0.006,0.026,0.01,0.04,0.016c0.571,0.205,1.153,0.406,1.747,0.604c0.052,0.016,0.104,0.033,0.154,0.049  c0.598,0.197,1.207,0.387,1.827,0.572c0.004,0,0.008,0.002,0.011,0.004c0.643,0.189,1.298,0.373,1.965,0.551  c0.005,0.002,0.01,0.004,0.015,0.004c-1.804-1.621-3.603-3.242-5.396-4.865l0.011,0.01c0.294,0.266,0.59,0.531,0.884,0.797  c-16.56-5.889-23.279-16.256-25.971-23.013c-0.134-0.359-0.311-0.953-0.4-1.333c-0.058-0.248-0.115-0.492-0.182-0.729  c-1.503-5.376-1.416-8.773,0.283-11.012c0.111-0.147,0.227-0.283,0.346-0.413c0.046-0.05,0.096-0.095,0.143-0.142  c0.074-0.074,0.146-0.149,0.223-0.218c0.064-0.058,0.131-0.11,0.197-0.163c0.061-0.05,0.122-0.102,0.184-0.148  c0.079-0.06,0.161-0.113,0.241-0.167c0.051-0.034,0.101-0.068,0.151-0.1c0.093-0.058,0.188-0.111,0.283-0.163  c0.039-0.021,0.077-0.043,0.116-0.063c0.107-0.055,0.215-0.105,0.324-0.154c0.026-0.012,0.053-0.024,0.08-0.036  c0.121-0.051,0.242-0.099,0.363-0.143c0.014-0.004,0.027-0.01,0.041-0.015c0.037-0.013,0.075-0.023,0.112-0.036  c0.089-0.076,0.415-0.136,0.415-0.136l0,0.003c1.321-0.317,2.591-0.321,3.49-0.321h5.021v7.637h-5.021  c-0.207,0-1.716-0.012-2.728-0.012h-0.573c0.404,2.794,1.144,5.536,2.231,8.092c0.001,0.003,0.001,0.007,0.003,0.01  c0.021,0.073,0.045,0.14,0.067,0.213c0.012,0.004,0.019,0.008,0.032,0.014c1.72,3.952,4.283,7.595,7.767,10.853  c3.606,3.371,7.255,6.699,10.921,10.021l0.934,0.857l9.593,8.633c3.209,2.881,6.426,5.77,9.652,8.688  c2.718-2.486,5.251-4.836,7.818-7.146c7.618-6.852,15.353-13.578,22.844-20.564c4.554-4.246,7.729-9.226,9.438-14.947  c-3.674-0.944-7.624-1.46-11.743-1.46c-12.147,0-22.859,4.478-29.148,11.255c0.361,1.059,0.562,2.193,0.562,3.377  c0,5.746-4.658,10.404-10.404,10.404c-5.747,0-10.406-4.658-10.406-10.404s4.659-10.405,10.406-10.405  c1.164,0,2.281,0.194,3.328,0.546c7.074-6.849,18.51-11.301,31.419-11.301c6.139,0,11.942,1.008,17.105,2.801  c0.081-0.59,0.151-1.184,0.201-1.788C95.633,29.118,94.086,21.501,87.044,15.932z M34.162,42.64c0,0.759-0.617,1.375-1.377,1.375  l-8.138-2.292c-0.738-0.258-1.375-0.616-1.375-1.375v-8.253c0-0.759,0.602-1.163,1.375-1.375l8.138-2.293  c0.76,0,1.377,0.616,1.377,1.375V42.64z"/><path xmlns="http://www.w3.org/2000/svg" d="M34.117,69.824c0.041,0.037,0.082,0.072,0.122,0.109l-0.01-0.01L34.117,69.824z"/><path xmlns="http://www.w3.org/2000/svg" d="M42.839,49.913c-4.326,0-7.845,3.519-7.845,7.845c0,4.324,3.519,7.844,7.845,7.844c4.325,0,7.844-3.52,7.844-7.844  C50.684,53.432,47.165,49.913,42.839,49.913z M42.839,62.631c-2.688,0-4.875-2.186-4.875-4.873s2.187-4.875,4.875-4.875  c2.687,0,4.874,2.188,4.874,4.875S45.526,62.631,42.839,62.631z"/></g><g id="SvgjsG3829" featureKey="textGroupContainer" transform="matrix(1,0,0,1,355,0)" fill="#fff"><rect xmlns="http://www.w3.org/2000/svg" y="0" height="1" width="1" opacity="0"/><rect xmlns="http://www.w3.org/2000/svg" y="0" x="-235" width="3" height="150"/></g><g id="SvgjsG3830" featureKey="nameFeature-0" transform="matrix(1.5368106676271733,0,0,1.5368106676271733,132.41636029411765,23.310512037287168)" fill="#fff"><path d="M23.68 39.04 l0 0.08 s-0.04 0.04 -0.04 0.08 c-0.16 0.76 -2.4 1.08 -3 1 c-0.56 0 -1.08 -0.32 -1.28 -1 c-1.44 -5.6 -2.6 -10.28 -3.52 -16 c-1.6 4.88 -2.68 9.56 -4.12 14.56 c-0.16 0.6 -0.24 1.56 -0.68 2 c-0.44 0.36 -3.04 0.32 -3.48 0.04 c-0.68 -0.48 -0.96 -3.96 -1.08 -5.24 c-0.28 -2.36 -0.56 -4.68 -0.88 -7.04 c-0.64 -4.68 -1.32 -9.36 -1.76 -14.04 c-0.08 -0.84 -0.12 -0.68 -0.2 -1.56 c-0.2 -2.76 4.12 -3.44 4.36 0 c0.48 6.84 1.2 10.6 2.08 17.36 c1.72 -4.68 1.88 -7.72 3.44 -11.88 c0.24 -1.08 1.44 -1.8 2.44 -1.6 c0.56 0.08 1.88 0.56 1.92 1.56 c1.44 5.48 2.48 7.24 3.28 12.4 c1.28 -6.8 1.72 -10.8 2 -17.76 c0.12 -3.12 4.48 -3.32 4.4 0 c-0.24 9.44 -1.84 17.88 -3.88 27.04 z M50.519999999999996 11.96 c0.16 4.16 0.16 7.52 0.08 11.68 c-0.04 3.92 0.36 9.08 -0.56 12.44 c-0.8 3 -4.92 4.2 -8.16 4.2 c-2.12 0 -5.04 -1.12 -6.08 -2.96 c-1.08 -1.96 -1.2 -4.64 -1.2 -6.8 c-0.04 -2.2 0 -4.4 -0.04 -6.64 c-0.04 -4.28 0.08 -7.76 0.24 -12.04 c0.12 -2.88 4.48 -3.2 4.36 0 c-0.16 4.16 -0.28 7.56 -0.24 11.72 c0.04 2.12 0.04 4.2 0.08 6.28 c0.04 3.08 0.04 6.08 2.88 6.12 c4.16 0.04 4.24 -2.72 4.24 -5.24 c-0.04 -2.2 0 -4.44 0.04 -6.64 c0.08 -4.32 0.12 -7.8 0 -12.12 c-0.08 -2.72 4.28 -3.04 4.36 0 z M69.16000000000001 11.8 c0 -2.64 4.28 -2.8 4.4 0 c0.4 9.28 -0.44 16.96 -0.16 26.24 c0.08 2.76 -4.24 2.92 -4.36 0 c-0.2 -5.28 0.04 -8.52 0.08 -13.8 c-2.8 0.2 -4.96 -0.52 -7.64 0.16 c-0.08 5.16 0 8.32 -0.12 13.48 c-0.08 3.12 -4.44 3 -4.36 0 c0.24 -9.12 -0.2 -16.64 0.16 -25.76 c0.12 -2.88 4.48 -2.96 4.36 0 c-0.12 3 0 4.8 0 7.84 c2.76 -0.44 4.8 0.32 7.6 -0.04 c0.04 -3.12 0.04 -5 0.04 -8.12 z M96.44000000000001 37.8 c0.56 2.48 -3.44 3.36 -4.16 1.08 c-0.52 -1.68 -0.6 -2.72 -0.88 -4.48 c-2.56 0.12 -4.48 0.08 -7.04 -0.16 c-0.44 1.64 -0.72 2.88 -1.16 4.48 c-0.72 2.56 -4.68 1.48 -3.88 -1.64 c2.32 -9.08 3.96 -16.48 6.48 -25.52 c0 -0.36 0.6 -2 2.72 -2 c1.92 0 2.68 0.88 2.92 1.88 c3.08 9.04 2.88 17.12 5 26.36 z M85.48000000000002 29.92 c2.2 0.2 2.88 0.2 5.08 0.16 c-0.8 -5.12 -0.68 -8.28 -1.92 -13.28 c-1.36 5.04 -1.88 8.08 -3.16 13.12 z M114.16 12.239999999999998 c-1.76 4.44 -3.6 8.16 -5.56 12.52 c-0.04 4.6 -0.08 8.44 -0.08 13.04 c0 2.8 -4.4 2.84 -4.4 0 c0 -4.76 0.08 -8.76 0.08 -13.52 l0 -0.08 c-1.36 -4.24 -2.88 -7.64 -4.88 -11.6 c-1.28 -2.56 2.4 -4.4 4 -1.36 c1.68 3.2 2.04 4.28 3.32 7.68 c1.48 -3.16 1.92 -4.16 3.24 -7.4 c1.2 -2.92 5.2 -1.68 4.28 0.72 z M133.64000000000001 11.96 c0.16 4.16 0.16 7.52 0.08 11.68 c-0.04 3.92 0.36 9.08 -0.56 12.44 c-0.8 3 -4.92 4.2 -8.16 4.2 c-2.12 0 -5.04 -1.12 -6.08 -2.96 c-1.08 -1.96 -1.2 -4.64 -1.2 -6.8 c-0.04 -2.2 0 -4.4 -0.04 -6.64 c-0.04 -4.28 0.08 -7.76 0.24 -12.04 c0.12 -2.88 4.48 -3.2 4.36 0 c-0.16 4.16 -0.28 7.56 -0.24 11.72 c0.04 2.12 0.04 4.2 0.08 6.28 c0.04 3.08 0.04 6.08 2.88 6.12 c4.16 0.04 4.24 -2.72 4.24 -5.24 c-0.04 -2.2 0 -4.44 0.04 -6.64 c0.08 -4.32 0.12 -7.8 0 -12.12 c-0.08 -2.72 4.28 -3.04 4.36 0 z"/></g><g id="SvgjsG3831" featureKey="sloganFeature-0" transform="matrix(1.1603283873102361,0,0,1.1603283873102361,136.12089889331395,89.45454464976336)" fill="#fff"><path d="M7.7 5.9 c0 -1.32 2.14 -1.4 2.2 0 c0.2 4.64 -0.22 8.48 -0.08 13.12 c0.04 1.38 -2.12 1.46 -2.18 0 c-0.1 -2.64 0.02 -4.26 0.04 -6.9 c-1.4 0.1 -2.48 -0.26 -3.82 0.08 c-0.04 2.58 0 4.16 -0.06 6.74 c-0.04 1.56 -2.22 1.5 -2.18 0 c0.12 -4.56 -0.1 -8.32 0.08 -12.88 c0.06 -1.44 2.24 -1.48 2.18 0 c-0.06 1.5 0 2.4 0 3.92 c1.38 -0.22 2.4 0.16 3.8 -0.02 c0.02 -1.56 0.02 -2.5 0.02 -4.06 z M22.4945 17.84 c1.48 -0.16 1.5 2.12 0 2.18 c-1.76 0.08 -4.4 0.06 -6.18 0.16 c-0.18 0.02 -0.3 -0.04 -0.42 -0.1 c-0.26 -0.08 -0.46 -0.28 -0.44 -0.64 c0.26 -4.52 -0.08 -9.06 0.06 -13.58 c-0.12 -0.4 0.1 -0.9 0.62 -0.86 c1.8 0.1 4.46 0.12 6.26 0.06 c1.4 -0.04 1.42 2.14 0 2.18 c-1.56 0.04 -3.12 0 -4.66 -0.04 c-0.04 2.06 -0.06 0.54 -0.02 2.6 c1.08 0.36 2.4 0.2 3.54 0.16 c1.48 -0.06 1.5 2.32 0 2.36 c-1.12 0.02 -2.4 0.18 -3.52 -0.08 c0 1.58 0.06 4.16 -0.02 5.74 c1.6 -0.04 3.2 0.04 4.78 -0.14 z M37.329 18.9 c0.28 1.24 -1.72 1.68 -2.08 0.54 c-0.26 -0.84 -0.3 -1.36 -0.44 -2.24 c-1.28 0.06 -2.24 0.04 -3.52 -0.08 c-0.22 0.82 -0.36 1.44 -0.58 2.24 c-0.36 1.28 -2.34 0.74 -1.94 -0.82 c1.16 -4.54 1.98 -8.24 3.24 -12.76 c0 -0.18 0.3 -1 1.36 -1 c0.96 0 1.34 0.44 1.46 0.94 c1.54 4.52 1.44 8.56 2.5 13.18 z M31.849 14.96 c1.1 0.1 1.44 0.1 2.54 0.08 c-0.4 -2.56 -0.34 -4.14 -0.96 -6.64 c-0.68 2.52 -0.94 4.04 -1.58 6.56 z M49.62350000000001 17.72 c1.58 -0.12 1.66 2.04 0 2.18 l-5.58 0 c-0.34 0.12 -0.76 0.02 -0.88 -0.32 c-0.12 -0.22 -0.12 -0.48 -0.02 -0.7 c0.32 -4.4 -0.04 -8.48 -0.1 -12.88 c-0.02 -1.48 2.16 -1.56 2.18 0 c0.06 4.3 0.4 7.44 0.12 11.72 l4.28 0 z M60.578 4.9399999999999995 c1.5 0.04 1.64 2.28 0 2.18 c-0.96 -0.06 -1.5 0 -2.44 0 c-0.14 4.44 -0.24 7.56 -0.18 11.92 c0.02 1.5 -2.18 1.34 -2.18 0 c0 -4.36 0.04 -7.48 0.18 -11.9 c-0.92 0.02 -1.44 0.08 -2.34 0.04 c-1.46 -0.08 -1.46 -2.26 0 -2.18 c2.32 0.12 4.64 -0.1 6.96 -0.06 z M73.0325 5.9 c0 -1.32 2.14 -1.4 2.2 0 c0.2 4.64 -0.22 8.48 -0.08 13.12 c0.04 1.38 -2.12 1.46 -2.18 0 c-0.1 -2.64 0.02 -4.26 0.04 -6.9 c-1.4 0.1 -2.48 -0.26 -3.82 0.08 c-0.04 2.58 0 4.16 -0.06 6.74 c-0.04 1.56 -2.22 1.5 -2.18 0 c0.12 -4.56 -0.1 -8.32 0.08 -12.88 c0.06 -1.44 2.24 -1.48 2.18 0 c-0.06 1.5 0 2.4 0 3.92 c1.38 -0.22 2.4 0.16 3.8 -0.02 c0.02 -1.56 0.02 -2.5 0.02 -4.06 z M88.947 6.119999999999999 c-0.88 2.22 -1.8 4.08 -2.78 6.26 c-0.02 2.3 -0.04 4.22 -0.04 6.52 c0 1.4 -2.2 1.42 -2.2 0 c0 -2.38 0.04 -4.38 0.04 -6.76 l0 -0.04 c-0.68 -2.12 -1.44 -3.82 -2.44 -5.8 c-0.64 -1.28 1.2 -2.2 2 -0.68 c0.84 1.6 1.02 2.14 1.66 3.84 c0.74 -1.58 0.96 -2.08 1.62 -3.7 c0.6 -1.46 2.6 -0.84 2.14 0.36 z M113.07600000000001 6.119999999999999 c-0.88 2.22 -1.8 4.08 -2.78 6.26 c-0.02 2.3 -0.04 4.22 -0.04 6.52 c0 1.4 -2.2 1.42 -2.2 0 c0 -2.38 0.04 -4.38 0.04 -6.76 l0 -0.04 c-0.68 -2.12 -1.44 -3.82 -2.44 -5.8 c-0.64 -1.28 1.2 -2.2 2 -0.68 c0.84 1.6 1.02 2.14 1.66 3.84 c0.74 -1.58 0.96 -2.08 1.62 -3.7 c0.6 -1.46 2.6 -0.84 2.14 0.36 z M121.3905 4.779999999999999 c3.88 0.02 3.98 6.02 4.16 8.82 c0.14 2.1 -1.5 7.94 -5.58 6.24 c-2.86 -1.2 -3.12 -5.88 -2.88 -8.54 c0.2 -2.2 0.8 -5.42 3.1 -6.34 c0.12 -0.1 0.74 -0.18 0.94 -0.18 l0.18 0 l0.08 0 z M123.3705 13.6 c0 -1.66 -0.42 -6.92 -1.96 -6.62 c-2.64 0.5 -2.22 7.92 -1.52 9.7 c0.48 1.22 2 2.26 2.88 0.32 c0.46 -1.02 0.6 -2.22 0.6 -3.4 z M139.445 5.98 c0.08 2.08 0.08 3.76 0.04 5.84 c-0.02 1.96 0.18 4.54 -0.28 6.22 c-0.4 1.5 -2.46 2.1 -4.08 2.1 c-1.06 0 -2.52 -0.56 -3.04 -1.48 c-0.54 -0.98 -0.6 -2.32 -0.6 -3.4 c-0.02 -1.1 0 -2.2 -0.02 -3.32 c-0.02 -2.14 0.04 -3.88 0.12 -6.02 c0.06 -1.44 2.24 -1.6 2.18 0 c-0.08 2.08 -0.14 3.78 -0.12 5.86 c0.02 1.06 0.02 2.1 0.04 3.14 c0.02 1.54 0.02 3.04 1.44 3.06 c2.08 0.02 2.12 -1.36 2.12 -2.62 c-0.02 -1.1 0 -2.22 0.02 -3.32 c0.04 -2.16 0.06 -3.9 0 -6.06 c-0.04 -1.36 2.14 -1.52 2.18 0 z"/></g>
			</g>
		</svg>
	